<svg width="326" height="101" viewBox="0 0 326 101" fill="none" xmlns="http://www.w3.org/2000/svg">
<g clip-path="url(#clip0_596_324)">
<path d="M161.173 100.118V99.9559C161.336 99.7527 161.621 99.6307 161.865 99.6714C163.043 99.6307 164.181 99.6307 165.36 99.6714C165.604 99.6714 165.889 99.7527 166.051 99.9559V100.118H161.173Z" fill="white"/>
<path d="M166.051 99.9562C164.425 99.9156 162.799 99.9156 161.173 99.9562C158.938 99.8343 156.702 99.753 154.466 99.5904C148.532 99.1432 142.637 98.2489 136.865 96.9075C116.907 92.2735 99.3869 82.9649 84.1029 69.4288C82.6802 68.1687 81.3387 66.8679 79.9567 65.5671C79.6315 65.2826 79.3469 64.8761 79.1843 64.4696C78.9404 63.9005 79.0624 63.2908 79.4689 62.8436C79.8754 62.3965 80.5258 62.2339 81.0948 62.4778C81.4607 62.6404 81.8265 62.803 82.1517 63.0062C96.7447 72.0303 112.679 78.6155 129.386 82.5178C134.995 83.8185 140.646 84.8348 146.337 85.5664C154.507 86.5827 162.759 86.9485 170.97 86.664C175.401 86.542 179.791 86.1355 184.181 85.5664C194.424 84.2657 204.546 81.9487 214.342 78.6968C219.505 76.9895 224.545 75.0383 229.464 72.762C230.195 72.3555 231.09 72.2336 231.903 72.4368C233.244 72.762 234.057 74.1441 233.732 75.4855C233.691 75.6481 233.61 75.8513 233.529 76.0139C233.204 76.6237 232.756 77.1521 232.187 77.5586C227.513 81.217 222.472 84.4283 217.147 87.1111C207.107 92.1922 196.375 95.81 185.319 97.8831C178.937 99.0213 172.515 99.7123 166.051 99.9562Z" fill="white"/>
<path d="M105.85 17.5605C106.866 16.9507 107.923 16.3003 109.021 15.7313C111.866 14.2679 115.037 13.5362 118.248 13.6988C120.565 13.8208 122.679 14.4711 124.305 16.1784C125.849 17.7637 126.418 19.7149 126.581 21.8286C126.622 22.2758 126.622 22.7229 126.622 23.2107V44.2669C126.622 46.0961 126.378 46.34 124.549 46.34H119.589C119.264 46.34 118.939 46.34 118.614 46.2993C118.126 46.2587 117.72 45.8522 117.638 45.3644C117.557 44.9173 117.557 44.4701 117.557 44.023V25.2025C117.598 24.4302 117.516 23.6985 117.313 22.9668C116.988 21.7067 115.85 20.8124 114.549 20.7311C112.151 20.5685 109.752 21.0563 107.557 22.0725C107.232 22.1538 107.029 22.479 107.07 22.8042V44.1856C107.07 44.5921 107.07 44.9579 106.988 45.3644C106.988 45.9335 106.541 46.34 105.972 46.34C105.362 46.3806 104.753 46.3806 104.102 46.3806H99.7934C98.2894 46.3806 97.9642 46.0148 97.9642 44.5108V25.2838C97.9642 24.5928 97.9235 23.8611 97.7609 23.17C97.4764 21.788 96.2976 20.8124 94.9155 20.7311C92.4765 20.5685 89.997 21.0563 87.8019 22.1132C87.4767 22.1945 87.2735 22.5603 87.3548 22.8855V44.5514C87.3548 46.0554 87.0296 46.3806 85.5256 46.3806H80.0786C78.6559 46.3806 78.29 45.9741 78.29 44.5921V16.3816C78.29 16.0565 78.3307 15.7313 78.412 15.4061C78.5746 14.9183 79.0624 14.6337 79.5502 14.6337H84.6313C85.363 14.6337 85.8101 15.0809 86.054 15.7719C86.2572 16.341 86.3792 16.8694 86.5824 17.4792C86.9889 17.4792 87.2328 17.1946 87.5174 17.032C89.7531 15.65 92.1107 14.4711 94.7529 13.9834C96.7854 13.5769 98.8178 13.5769 100.85 13.9834C102.761 14.3898 104.468 15.528 105.566 17.154C105.647 17.2759 105.728 17.3572 105.809 17.4385C105.769 17.4792 105.809 17.4792 105.85 17.5605Z" fill="white"/>
<path d="M190.116 37.8036C190.359 36.9906 190.603 36.2183 190.847 35.4053C192.717 29.1047 194.587 22.8448 196.457 16.5442L196.701 15.8125C196.904 15.0808 197.595 14.6337 198.327 14.6337H204.505C206.05 14.6337 206.375 15.0808 205.847 16.5442L203.408 23.0074C200.684 30.0803 197.961 37.1939 195.237 44.2668C195.156 44.5107 195.034 44.7546 194.953 44.9985C194.668 45.8521 193.815 46.4212 192.92 46.3399C191.132 46.2993 189.343 46.2993 187.555 46.3399C186.295 46.3806 185.563 45.8115 185.116 44.6733C184.099 41.9905 183.043 39.267 182.026 36.5841C179.587 30.2022 177.108 23.8203 174.669 17.3978C174.425 16.91 174.262 16.3409 174.14 15.8125C174.018 14.9995 174.303 14.593 175.116 14.593C177.433 14.5524 179.75 14.593 182.026 14.593C183.002 14.593 183.449 15.2434 183.693 16.097C184.14 17.6417 184.587 19.227 185.075 20.7717C186.742 26.4219 188.368 32.1128 190.034 37.763C189.994 37.8036 190.034 37.8036 190.116 37.8036Z" fill="white"/>
<path d="M45.7708 19.1051C46.0553 19.0238 46.2992 18.8612 46.4618 18.6173C47.1935 17.8856 47.9658 17.1946 48.7788 16.5442C50.8926 14.9183 53.5348 14.1053 56.1769 14.3085C57.2338 14.3492 57.5997 14.6744 57.681 15.6906C57.7623 17.0727 57.7216 18.4954 57.7216 19.8774C57.7623 20.4465 57.7216 20.975 57.6403 21.5441C57.4777 22.2757 57.1932 22.5603 56.4615 22.6416C55.8924 22.6822 55.364 22.6416 54.7949 22.6009C52.0714 22.357 49.4292 22.8855 46.8683 23.7391C46.2992 23.9423 46.2992 24.3488 46.2992 24.796V44.3075C46.2992 44.6734 46.2992 44.9985 46.2586 45.3644C46.2179 45.8928 45.8114 46.2993 45.283 46.2993C44.9985 46.34 44.6733 46.34 44.3887 46.34H39.1044C38.8198 46.34 38.4946 46.34 38.2101 46.2993C37.6816 46.2587 37.2751 45.8115 37.2345 45.2831C37.1938 44.9579 37.1938 44.6327 37.1938 44.3075V16.6662C37.1938 14.7963 37.3971 14.5931 39.2669 14.5931H43.1693C44.2261 14.5931 44.7139 14.9589 44.9985 15.9751C45.283 16.9914 45.5269 18.0076 45.7708 19.1051Z" fill="white"/>
<path d="M235.927 60.3232C238.61 60.4045 241.252 60.5671 243.854 61.2582C244.585 61.4614 245.276 61.7053 245.967 62.0305C246.902 62.3963 247.512 63.2906 247.634 64.2662C247.797 65.4044 247.837 66.5832 247.756 67.762C247.227 74.713 245.073 81.4201 241.496 87.3955C240.195 89.5499 238.61 91.5011 236.781 93.2083C236.415 93.5742 235.968 93.8587 235.48 94.0213C234.708 94.2245 234.22 93.818 234.179 93.0457C234.22 92.6392 234.301 92.2327 234.464 91.8262C235.886 88.0052 237.268 84.2249 238.366 80.2819C239.016 78.1275 239.463 75.9325 239.748 73.6968C239.829 72.8838 239.87 72.0708 239.789 71.2578C239.748 69.8758 238.854 68.6969 237.512 68.2905C236.252 67.884 234.951 67.6401 233.61 67.5588C229.87 67.3962 226.131 67.5588 222.432 68.0466L217.513 68.6563C216.985 68.6969 216.497 68.6563 216.212 68.1685C215.928 67.6807 216.05 67.1929 216.334 66.7051C216.659 66.258 217.066 65.8515 217.554 65.567C220.562 63.4126 223.936 62.1118 227.513 61.2582C230.277 60.6891 233.082 60.4045 235.927 60.3232Z" fill="white"/>
<path d="M218.895 30.4867V45.1203C218.814 45.9333 218.448 46.2991 217.635 46.3398C215.44 46.3804 213.285 46.3804 211.09 46.3398C210.277 46.3398 209.912 45.9333 209.83 45.161C209.79 44.9171 209.79 44.6325 209.79 44.3886V16.2595C209.83 14.9994 210.155 14.6335 211.416 14.6335H217.269C218.529 14.6335 218.895 14.9994 218.895 16.2595V30.4867Z" fill="white"/>
<path d="M61.6239 30.4055V15.9751C61.6646 14.9995 62.0304 14.6336 63.006 14.593C65.1197 14.5523 67.2335 14.5523 69.3472 14.593C70.2821 14.593 70.5667 14.8775 70.648 15.8125C70.6886 16.1783 70.6886 16.5035 70.6886 16.8693V43.9416C70.6886 44.3887 70.648 44.8359 70.6073 45.283C70.5667 45.8114 70.1602 46.1773 69.6318 46.2179C69.3879 46.2586 69.1846 46.2586 68.9407 46.2586H63.2905C63.0873 46.2586 62.9247 46.2586 62.7214 46.2179C62.1523 46.1773 61.6646 45.7301 61.6239 45.1611C61.5833 44.8359 61.5833 44.5107 61.5833 44.1855C61.6239 39.6734 61.6239 35.0395 61.6239 30.4055Z" fill="white"/>
<path d="M66.3392 0.0407474C66.9895 9.83702e-05 67.6399 0.122045 68.2497 0.325291C70.4447 1.05697 71.5829 2.96748 71.3796 5.44707C71.217 7.56082 69.6317 9.26808 67.518 9.59327C66.6237 9.75587 65.6888 9.75587 64.7945 9.59327C62.4775 9.14613 60.7702 7.43887 60.9328 4.51214C61.1767 1.62606 63.0872 0.0407474 66.3392 0.0407474Z" fill="white"/>
<path d="M214.383 0.040737C215.196 -0.040561 216.009 0.122035 216.781 0.447227C218.367 1.05696 219.464 2.52033 219.545 4.22759C219.871 7.92665 217.391 9.7965 214.098 9.71521C213.651 9.71521 213.204 9.63391 212.757 9.55261C210.237 8.94287 208.936 6.99172 209.18 4.18694C209.383 1.95124 211.131 0.284631 213.529 0.0813861C213.814 0.040737 214.098 8.80089e-05 214.383 0.040737Z" fill="white"/>
<path d="M31.1778 27.0722C31.0152 24.9585 30.4461 22.8854 29.5925 20.9748C27.9259 17.479 25.365 14.9181 21.4627 14.0239C16.9913 13.0483 12.967 14.0239 9.30863 16.7474C9.06473 16.9912 8.78019 17.1945 8.455 17.3571C8.3737 17.3164 8.2924 17.2758 8.2924 17.2351C8.17046 16.8286 8.08916 16.4222 7.96721 16.0157C7.64202 14.9994 7.23553 14.6336 6.138 14.6336C4.91853 14.6336 3.65841 14.6743 2.43894 14.6336C1.50401 14.593 0.650385 14.7149 0 15.4466C0 29.6737 0 43.9415 0.040649 58.1281C0.569086 58.9817 1.38207 59.1443 2.31699 59.1036C3.78036 59.063 5.24373 59.1036 6.70709 59.1036C9.26798 59.1036 9.26798 59.1036 9.26798 56.5834V44.9984C9.26798 44.7139 9.14603 44.3887 9.43058 44.1448C11.463 45.7301 13.9426 46.7057 16.5035 46.9496C20.0806 47.3154 23.3325 46.4211 26.056 43.9822C28.0478 42.153 29.5112 39.7954 30.2835 37.1938C31.3811 33.8606 31.4624 30.4867 31.1778 27.0722ZM21.4627 35.4866C21.1781 36.7467 20.5278 37.8848 19.5928 38.7385C18.536 39.6328 17.2352 40.1612 15.8531 40.1612C13.78 40.2831 11.7476 39.836 9.91836 38.8604C9.47123 38.6572 9.18668 38.21 9.22733 37.7223V30.3648C9.22733 27.9258 9.26798 25.4869 9.22733 23.048C9.18668 22.4789 9.51187 21.9911 10.0403 21.7878C12.276 20.731 14.593 20.2432 17.0319 20.731C18.7392 20.9748 20.2026 22.0724 20.8936 23.6577C21.5033 24.9585 21.8692 26.3812 21.9505 27.8039C22.1944 30.4054 22.1944 33.007 21.4627 35.4866Z" fill="white"/>
<path d="M325.274 27.9666V28.1292C325.111 27.9666 325.03 27.7227 325.111 27.5195V27.1943C325.111 27.1943 325.111 27.1537 325.152 27.1537H325.111V26.7472H325.192C325.192 26.7065 325.152 26.7065 325.152 26.6659C325.07 25.8935 324.908 25.1212 324.704 24.3895C323.2 19.0238 319.827 15.4874 314.339 14.1053C311.778 13.4956 309.177 13.4143 306.575 13.8208C301.087 14.6338 297.144 17.5605 295.234 22.7636C293.364 27.7227 293.405 33.1697 295.275 38.1289C296.901 42.6409 300.152 45.4864 304.827 46.6652C307.307 47.2749 309.908 47.4375 312.469 47.0717C321.005 46.0555 324.542 39.5923 325.111 33.9827H325.07V33.4136C325.03 33.1697 324.989 32.9665 325.233 32.8039V32.8852C325.233 32.8445 325.274 32.7632 325.314 32.7226V28.0479C325.314 28.0073 325.274 28.0073 325.274 27.9666ZM315.518 35.69C315.274 36.5436 314.908 37.3159 314.38 38.0476C313.485 39.3077 312.063 40.1207 310.518 40.2426C309.746 40.3239 308.973 40.3239 308.201 40.1613C306.494 39.8362 305.071 38.698 304.38 37.1127C303.77 35.8525 303.404 34.4705 303.282 33.0884C303.079 30.6901 303.039 28.2918 303.608 25.9342C303.811 24.9993 304.217 24.0643 304.705 23.2513C305.599 21.788 307.144 20.8531 308.851 20.7311C309.624 20.6498 310.396 20.6498 311.168 20.8124C312.794 21.1376 314.136 22.1945 314.867 23.6985C315.558 25.1212 315.965 26.7065 316.046 28.2918C316.087 29.0235 316.128 29.7552 316.087 30.4869C316.209 32.2754 316.006 34.0233 315.518 35.69Z" fill="white"/>
<path d="M254.016 0.325195H248.365C246.821 0.325195 246.536 0.609739 246.536 2.1544V15.3247C246.536 15.6092 246.658 15.8938 246.455 16.1783C246.089 16.1377 245.886 15.8938 245.601 15.7312C241.374 13.2516 236.943 12.8044 232.472 14.8775C229.342 16.3409 227.391 18.9831 226.13 22.1131C224.911 25.1211 224.626 28.2917 224.708 31.503C224.708 34.511 225.399 37.4784 226.74 40.1613C228.285 43.1286 230.52 45.405 233.772 46.3806C238.203 47.7626 242.349 47.0716 246.13 44.2668C246.414 44.1042 246.577 43.8197 246.943 43.7384C247.146 44.1855 247.309 44.6733 247.39 45.1611C247.552 45.8115 248.122 46.2586 248.813 46.2586H249.788C251.252 46.2586 252.674 46.2993 254.097 46.2586C255.235 46.2586 255.56 45.8928 255.601 44.7139V1.86986C255.56 0.609739 255.235 0.325195 254.016 0.325195ZM246.577 30.2429V37.641C246.658 38.1288 246.374 38.5759 245.926 38.7792C243.975 39.8767 241.74 40.3238 239.545 39.9987C237.675 39.7954 236.049 38.6572 235.195 36.9906C234.545 35.6899 234.179 34.3078 234.057 32.8851C233.732 30.3242 233.935 27.7226 234.545 25.2431C234.748 24.552 234.992 23.9016 235.358 23.2513C236.211 21.6659 237.837 20.6497 239.626 20.5278C241.78 20.3245 243.935 20.731 245.886 21.6253C246.374 21.7879 246.658 22.2757 246.618 22.8041C246.536 25.3244 246.577 27.7633 246.577 30.2429Z" fill="white"/>
<path d="M141.459 33.0476C144.507 33.6167 147.637 33.6574 150.686 33.1696C152.474 32.9257 154.182 32.3972 155.767 31.5436C157.596 30.4867 158.938 29.0234 159.507 26.9909C160.929 21.8691 158.734 16.7067 153.409 14.7962C150.808 13.9426 148.044 13.658 145.32 14.0239C138.898 14.7556 134.711 18.292 132.8 24.43C131.459 28.6169 131.622 32.885 132.719 37.1125C134.142 42.5188 137.719 45.7301 143.125 46.8683C146.215 47.5593 149.345 47.4374 152.434 46.9496C154.06 46.665 155.686 46.2586 157.23 45.6488C158.165 45.283 158.653 44.7139 158.612 43.657C158.572 42.6814 158.612 41.6652 158.612 40.649C158.612 39.4295 158.125 39.0637 156.946 39.3482C155.767 39.6328 154.629 39.8767 153.45 40.1205C150.93 40.649 148.328 40.649 145.808 40.2018C142.353 39.5108 140.117 36.5434 140.32 32.885C140.686 32.9257 141.093 32.9663 141.459 33.0476ZM140.442 26.8283C140.564 25.8527 140.849 24.9178 141.215 24.0235C142.434 21.0562 144.995 20.0399 147.597 20.2025C148.328 20.2432 149.06 20.4058 149.751 20.6903C150.808 21.1375 151.499 22.113 151.621 23.2512C151.743 23.9422 151.702 24.6739 151.499 25.365C151.011 26.8283 149.832 27.4381 148.41 27.7226C147.556 27.9258 146.662 28.0071 145.767 27.9258C144.182 27.9258 142.556 27.8039 140.971 27.56C140.361 27.4787 140.361 27.4787 140.442 26.8283Z" fill="white"/>
<path d="M278.568 33.4542C280.925 33.2916 283.283 32.8445 285.397 31.7063C287.551 30.6494 289.055 28.6576 289.502 26.3C289.787 24.8366 289.787 23.2919 289.462 21.8286C288.608 18.1702 286.291 15.8938 282.795 14.715C280.844 14.1053 278.771 13.8614 276.739 13.9427C269.91 14.1053 264.706 17.5604 262.593 24.3895C261.17 28.9015 261.373 33.4948 262.755 38.0069C264.178 42.6409 267.43 45.4457 272.064 46.7058C274.056 47.1936 276.129 47.3968 278.161 47.3155C281.129 47.2749 284.096 46.7058 286.901 45.6489C288.08 45.2018 288.364 44.7953 288.364 43.5352V40.6084C288.324 39.4296 287.836 39.0231 286.657 39.3077C285.763 39.5515 284.909 39.7548 284.015 39.958C281.291 40.6084 278.446 40.7304 275.682 40.2426C272.918 39.7141 271.048 38.1288 270.316 35.3647C270.113 34.5517 269.95 33.7387 269.869 32.8851C270.072 32.8851 270.275 32.8851 270.438 32.9664C273.121 33.4542 275.844 33.6574 278.568 33.4542ZM270.072 26.9503C270.357 25.365 270.723 23.8204 271.698 22.5196C273.202 20.5278 275.275 19.9587 277.633 20.2026C277.836 20.2026 277.999 20.2839 278.202 20.2839C281.047 20.731 281.738 23.0074 281.21 25.2024C280.804 26.8284 279.462 27.4381 277.958 27.7227C277.145 27.8853 276.291 27.9666 275.438 27.9259C273.771 27.8853 272.145 27.7633 270.519 27.5194C270.153 27.4788 269.991 27.3162 270.072 26.9503Z" fill="white"/>
</g>
<defs>
<clipPath id="clip0_596_324">
<rect width="325.314" height="100.119" fill="white"/>
</clipPath>
</defs>
</svg>
