<svg width="256" height="70" viewBox="0 0 256 70" fill="none" xmlns="http://www.w3.org/2000/svg">
<g clip-path="url(#clip0_596_319)">
<path d="M35.2 65.133C31.35 65.809 27.43 66.013 23.377 66.553L11.013 30.337V68.107C7.163 68.512 3.649 69.053 0 69.593V0.406982H10.27L24.323 39.662V0.406982H35.2V65.133ZM56.483 25.743L70.943 25.54V36.34L56.483 36.543V52.623L75.603 51.473V61.877L45.673 64.242V0.406982H75.603V11.207H56.483V25.733V25.743ZM115.803 11.217H104.59V60.944L93.79 61.079V11.217H82.564V0.406982H115.804L115.803 11.217ZM133.37 25H148.167V35.8H133.37V60.337H122.762V0.406982H152.964V11.207H133.37V24.99V25ZM170.53 50.877C176.68 51.012 182.894 51.485 188.907 51.823V62.497L159.72 61.077V0.406982H170.52V50.877H170.53ZM198.03 63.241C201.476 63.444 205.124 63.647 208.637 64.051V0.406982H198.03V63.241ZM256 0.406982L242.284 33.311L256 69.593C251.946 69.053 247.892 68.309 243.838 67.633L236.068 47.635L228.164 66.013C224.244 65.337 220.461 65.133 216.544 64.593L230.462 32.905L217.894 0.406982H229.514L236.608 18.582L244.176 0.406982H256Z" fill="white"/>
</g>
<defs>
<clipPath id="clip0_596_319">
<rect width="256" height="70" fill="white"/>
</clipPath>
</defs>
</svg>
